<mxfile host="app.diagrams.net" modified="2021-05-09T03:14:25.908Z" agent="5.0 (Macintosh; Intel Mac OS X 10_15_7) AppleWebKit/537.36 (KHTML, like Gecko) Chrome/90.0.4430.93 Safari/537.36" etag="NnvngolBYDdXh0kNaIt_" version="14.6.11" type="github">
  <diagram id="kMcbFjVAxlgt_-Fpa9tv" name="Page-1">
    <mxGraphModel dx="946" dy="614" grid="1" gridSize="10" guides="1" tooltips="1" connect="1" arrows="1" fold="1" page="1" pageScale="1" pageWidth="827" pageHeight="1169" math="0" shadow="0">
      <root>
        <mxCell id="0" />
        <mxCell id="1" parent="0" />
        <mxCell id="f2Tt5NnzWvDWgs96zWJe-4" value="Streamset pipeline" style="shape=process;whiteSpace=wrap;html=1;backgroundOutline=1;" vertex="1" parent="1">
          <mxGeometry x="354" y="190" width="120" height="70" as="geometry" />
        </mxCell>
        <mxCell id="f2Tt5NnzWvDWgs96zWJe-5" value="" style="group" vertex="1" connectable="0" parent="1">
          <mxGeometry x="309" y="40" width="210" height="120" as="geometry" />
        </mxCell>
        <mxCell id="f2Tt5NnzWvDWgs96zWJe-1" value="" style="rounded=0;whiteSpace=wrap;html=1;" vertex="1" parent="f2Tt5NnzWvDWgs96zWJe-5">
          <mxGeometry width="210" height="120" as="geometry" />
        </mxCell>
        <mxCell id="f2Tt5NnzWvDWgs96zWJe-2" value="MariaDB" style="shape=cylinder3;whiteSpace=wrap;html=1;boundedLbl=1;backgroundOutline=1;size=15;" vertex="1" parent="f2Tt5NnzWvDWgs96zWJe-5">
          <mxGeometry x="80" y="10" width="60" height="80" as="geometry" />
        </mxCell>
        <mxCell id="f2Tt5NnzWvDWgs96zWJe-3" value="Docker container" style="text;html=1;strokeColor=none;fillColor=none;align=center;verticalAlign=middle;whiteSpace=wrap;rounded=0;" vertex="1" parent="f2Tt5NnzWvDWgs96zWJe-5">
          <mxGeometry x="50" y="100" width="130" height="20" as="geometry" />
        </mxCell>
        <mxCell id="f2Tt5NnzWvDWgs96zWJe-8" value="" style="endArrow=classic;html=1;entryX=0.423;entryY=1.15;entryDx=0;entryDy=0;entryPerimeter=0;" edge="1" parent="f2Tt5NnzWvDWgs96zWJe-5" target="f2Tt5NnzWvDWgs96zWJe-3">
          <mxGeometry width="50" height="50" relative="1" as="geometry">
            <mxPoint x="105" y="150" as="sourcePoint" />
            <mxPoint x="155" y="100" as="targetPoint" />
          </mxGeometry>
        </mxCell>
        <mxCell id="f2Tt5NnzWvDWgs96zWJe-12" value="" style="group" vertex="1" connectable="0" parent="1">
          <mxGeometry x="560" y="160" width="180" height="120" as="geometry" />
        </mxCell>
        <mxCell id="f2Tt5NnzWvDWgs96zWJe-9" value="" style="rounded=0;whiteSpace=wrap;html=1;" vertex="1" parent="f2Tt5NnzWvDWgs96zWJe-12">
          <mxGeometry width="180" height="120" as="geometry" />
        </mxCell>
        <mxCell id="f2Tt5NnzWvDWgs96zWJe-10" value="HDFS" style="shape=cube;whiteSpace=wrap;html=1;boundedLbl=1;backgroundOutline=1;darkOpacity=0.05;darkOpacity2=0.1;" vertex="1" parent="f2Tt5NnzWvDWgs96zWJe-12">
          <mxGeometry x="30" y="10" width="120" height="80" as="geometry" />
        </mxCell>
        <mxCell id="f2Tt5NnzWvDWgs96zWJe-11" value="Docker container" style="text;html=1;strokeColor=none;fillColor=none;align=center;verticalAlign=middle;whiteSpace=wrap;rounded=0;" vertex="1" parent="f2Tt5NnzWvDWgs96zWJe-12">
          <mxGeometry x="50" y="90" width="110" height="20" as="geometry" />
        </mxCell>
        <mxCell id="f2Tt5NnzWvDWgs96zWJe-13" value="" style="endArrow=classic;html=1;entryX=0;entryY=0.5;entryDx=0;entryDy=0;" edge="1" parent="1" target="f2Tt5NnzWvDWgs96zWJe-9">
          <mxGeometry width="50" height="50" relative="1" as="geometry">
            <mxPoint x="473" y="220" as="sourcePoint" />
            <mxPoint x="520" y="170" as="targetPoint" />
          </mxGeometry>
        </mxCell>
      </root>
    </mxGraphModel>
  </diagram>
</mxfile>
